<mxfile host="app.diagrams.net" modified="2024-05-06T13:36:00.827Z" agent="Mozilla/5.0 (Windows NT 10.0; Win64; x64) AppleWebKit/537.36 (KHTML, like Gecko) Chrome/124.0.0.0 Safari/537.36" etag="cymYsCSvKCeqG2XBTtHQ" version="22.1.18" type="github">
  <diagram id="prtHgNgQTEPvFCAcTncT" name="Page-1">
    <mxGraphModel dx="1563" dy="559" grid="1" gridSize="10" guides="1" tooltips="1" connect="1" arrows="1" fold="1" page="1" pageScale="1" pageWidth="827" pageHeight="1169" math="0" shadow="0">
      <root>
        <mxCell id="0" />
        <mxCell id="1" parent="0" />
        <mxCell id="dNxyNK7c78bLwvsdeMH5-19" value="项目接口" style="swimlane;html=1;childLayout=stackLayout;resizeParent=1;resizeParentMax=0;horizontal=0;startSize=20;horizontalStack=0;" parent="1" vertex="1">
          <mxGeometry x="18" y="120" width="790" height="480" as="geometry" />
        </mxCell>
        <mxCell id="dNxyNK7c78bLwvsdeMH5-20" value="Maa.Pi" style="swimlane;html=1;startSize=20;horizontal=0;" parent="dNxyNK7c78bLwvsdeMH5-19" vertex="1">
          <mxGeometry x="20" width="770" height="120" as="geometry">
            <mxRectangle x="20" width="430" height="30" as="alternateBounds" />
          </mxGeometry>
        </mxCell>
        <mxCell id="dNxyNK7c78bLwvsdeMH5-25" value="" style="edgeStyle=orthogonalEdgeStyle;rounded=0;orthogonalLoop=1;jettySize=auto;html=1;" parent="dNxyNK7c78bLwvsdeMH5-20" source="dNxyNK7c78bLwvsdeMH5-23" target="dNxyNK7c78bLwvsdeMH5-24" edge="1">
          <mxGeometry relative="1" as="geometry" />
        </mxCell>
        <mxCell id="dNxyNK7c78bLwvsdeMH5-23" value="开发者编写&lt;br&gt;interface.json" style="ellipse;whiteSpace=wrap;html=1;" parent="dNxyNK7c78bLwvsdeMH5-20" vertex="1">
          <mxGeometry x="30" y="30" width="90" height="60" as="geometry" />
        </mxCell>
        <mxCell id="dNxyNK7c78bLwvsdeMH5-24" value="读取&lt;br&gt;interface.json" style="rounded=0;whiteSpace=wrap;html=1;fontFamily=Helvetica;fontSize=12;fontColor=#000000;align=center;" parent="dNxyNK7c78bLwvsdeMH5-20" vertex="1">
          <mxGeometry x="162" y="30" width="80" height="60" as="geometry" />
        </mxCell>
        <mxCell id="dNxyNK7c78bLwvsdeMH5-21" value="Maa.Pi.Binding" style="swimlane;html=1;startSize=20;horizontal=0;" parent="dNxyNK7c78bLwvsdeMH5-19" vertex="1">
          <mxGeometry x="20" y="120" width="770" height="120" as="geometry" />
        </mxCell>
        <mxCell id="vJPNDShFkI2undiYQ7cn-11" value="解析成&lt;br&gt;通用模型" style="rounded=0;whiteSpace=wrap;html=1;fontFamily=Helvetica;fontSize=12;fontColor=#000000;align=center;" vertex="1" parent="dNxyNK7c78bLwvsdeMH5-21">
          <mxGeometry x="162" y="30" width="80" height="60" as="geometry" />
        </mxCell>
        <mxCell id="vJPNDShFkI2undiYQ7cn-70" value="加载执行器" style="rounded=0;whiteSpace=wrap;html=1;fontFamily=Helvetica;fontSize=12;fontColor=#000000;align=center;" vertex="1" parent="dNxyNK7c78bLwvsdeMH5-21">
          <mxGeometry x="522" y="30" width="80" height="60" as="geometry" />
        </mxCell>
        <mxCell id="vJPNDShFkI2undiYQ7cn-10" value="开发者编写&lt;br&gt;执行器" style="ellipse;whiteSpace=wrap;html=1;" vertex="1" parent="dNxyNK7c78bLwvsdeMH5-21">
          <mxGeometry x="392" y="30" width="92" height="60" as="geometry" />
        </mxCell>
        <mxCell id="vJPNDShFkI2undiYQ7cn-23" style="edgeStyle=orthogonalEdgeStyle;rounded=0;orthogonalLoop=1;jettySize=auto;html=1;entryX=0;entryY=0.5;entryDx=0;entryDy=0;" edge="1" parent="dNxyNK7c78bLwvsdeMH5-21" source="vJPNDShFkI2undiYQ7cn-10" target="vJPNDShFkI2undiYQ7cn-70">
          <mxGeometry relative="1" as="geometry">
            <mxPoint x="180" y="60" as="targetPoint" />
          </mxGeometry>
        </mxCell>
        <mxCell id="vJPNDShFkI2undiYQ7cn-17" value="运行Maa.Framwork&amp;nbsp;" style="rounded=0;whiteSpace=wrap;html=1;fontFamily=Helvetica;fontSize=12;fontColor=#000000;align=center;" vertex="1" parent="dNxyNK7c78bLwvsdeMH5-21">
          <mxGeometry x="642" y="30" width="88" height="60" as="geometry" />
        </mxCell>
        <mxCell id="vJPNDShFkI2undiYQ7cn-73" style="edgeStyle=orthogonalEdgeStyle;rounded=0;orthogonalLoop=1;jettySize=auto;html=1;entryX=0;entryY=0.5;entryDx=0;entryDy=0;" edge="1" parent="dNxyNK7c78bLwvsdeMH5-21" source="vJPNDShFkI2undiYQ7cn-70" target="vJPNDShFkI2undiYQ7cn-17">
          <mxGeometry relative="1" as="geometry" />
        </mxCell>
        <mxCell id="dNxyNK7c78bLwvsdeMH5-22" value="Maa.Pi.UI" style="swimlane;html=1;startSize=20;horizontal=0;" parent="dNxyNK7c78bLwvsdeMH5-19" vertex="1">
          <mxGeometry x="20" y="240" width="770" height="120" as="geometry" />
        </mxCell>
        <mxCell id="vJPNDShFkI2undiYQ7cn-26" style="edgeStyle=orthogonalEdgeStyle;rounded=0;orthogonalLoop=1;jettySize=auto;html=1;entryX=0;entryY=0.5;entryDx=0;entryDy=0;" edge="1" parent="dNxyNK7c78bLwvsdeMH5-22" source="vJPNDShFkI2undiYQ7cn-18" target="vJPNDShFkI2undiYQ7cn-25">
          <mxGeometry relative="1" as="geometry" />
        </mxCell>
        <mxCell id="vJPNDShFkI2undiYQ7cn-18" value="开发者编写&lt;br&gt;Custom" style="ellipse;whiteSpace=wrap;html=1;" vertex="1" parent="dNxyNK7c78bLwvsdeMH5-22">
          <mxGeometry x="30" y="30" width="90" height="60" as="geometry" />
        </mxCell>
        <mxCell id="vJPNDShFkI2undiYQ7cn-63" style="edgeStyle=orthogonalEdgeStyle;rounded=0;orthogonalLoop=1;jettySize=auto;html=1;entryX=0;entryY=0.5;entryDx=0;entryDy=0;strokeColor=default;dashed=1;endArrow=none;endFill=0;" edge="1" parent="dNxyNK7c78bLwvsdeMH5-22" source="vJPNDShFkI2undiYQ7cn-25" target="vJPNDShFkI2undiYQ7cn-62">
          <mxGeometry relative="1" as="geometry" />
        </mxCell>
        <mxCell id="vJPNDShFkI2undiYQ7cn-25" value="加载中间层" style="rounded=0;whiteSpace=wrap;html=1;fontFamily=Helvetica;fontSize=12;fontColor=#000000;align=center;" vertex="1" parent="dNxyNK7c78bLwvsdeMH5-22">
          <mxGeometry x="162" y="30" width="80" height="60" as="geometry" />
        </mxCell>
        <mxCell id="vJPNDShFkI2undiYQ7cn-62" value="加载并&lt;br&gt;检查配置" style="rounded=0;whiteSpace=wrap;html=1;fontFamily=Helvetica;fontSize=12;fontColor=#000000;align=center;" vertex="1" parent="dNxyNK7c78bLwvsdeMH5-22">
          <mxGeometry x="282" y="30" width="80" height="60" as="geometry" />
        </mxCell>
        <mxCell id="vJPNDShFkI2undiYQ7cn-19" value="保存配置" style="rounded=0;whiteSpace=wrap;html=1;fontFamily=Helvetica;fontSize=12;fontColor=#000000;align=center;" vertex="1" parent="dNxyNK7c78bLwvsdeMH5-22">
          <mxGeometry x="402" y="30" width="80" height="60" as="geometry" />
        </mxCell>
        <mxCell id="vJPNDShFkI2undiYQ7cn-52" value="保存日志" style="rounded=0;whiteSpace=wrap;html=1;fontFamily=Helvetica;fontSize=12;fontColor=#000000;align=center;" vertex="1" parent="dNxyNK7c78bLwvsdeMH5-22">
          <mxGeometry x="642" y="30" width="88" height="60" as="geometry" />
        </mxCell>
        <mxCell id="vJPNDShFkI2undiYQ7cn-9" value="Maa.Pi.Gui / Tui / Cli" style="swimlane;html=1;startSize=20;horizontal=0;" vertex="1" parent="dNxyNK7c78bLwvsdeMH5-19">
          <mxGeometry x="20" y="360" width="770" height="120" as="geometry" />
        </mxCell>
        <mxCell id="vJPNDShFkI2undiYQ7cn-59" style="edgeStyle=orthogonalEdgeStyle;rounded=0;orthogonalLoop=1;jettySize=auto;html=1;entryX=0;entryY=0.5;entryDx=0;entryDy=0;" edge="1" parent="vJPNDShFkI2undiYQ7cn-9" source="vJPNDShFkI2undiYQ7cn-57" target="vJPNDShFkI2undiYQ7cn-58">
          <mxGeometry relative="1" as="geometry" />
        </mxCell>
        <mxCell id="vJPNDShFkI2undiYQ7cn-57" value="开发者编写&lt;br&gt;Custom" style="ellipse;whiteSpace=wrap;html=1;" vertex="1" parent="vJPNDShFkI2undiYQ7cn-9">
          <mxGeometry x="30" y="30" width="92" height="60" as="geometry" />
        </mxCell>
        <mxCell id="vJPNDShFkI2undiYQ7cn-66" style="edgeStyle=orthogonalEdgeStyle;rounded=0;orthogonalLoop=1;jettySize=auto;html=1;entryX=0;entryY=0.5;entryDx=0;entryDy=0;endArrow=none;endFill=0;dashed=1;" edge="1" parent="vJPNDShFkI2undiYQ7cn-9" source="vJPNDShFkI2undiYQ7cn-58" target="vJPNDShFkI2undiYQ7cn-61">
          <mxGeometry relative="1" as="geometry" />
        </mxCell>
        <mxCell id="vJPNDShFkI2undiYQ7cn-58" value="加载界面" style="rounded=0;whiteSpace=wrap;html=1;fontFamily=Helvetica;fontSize=12;fontColor=#000000;align=center;" vertex="1" parent="vJPNDShFkI2undiYQ7cn-9">
          <mxGeometry x="162" y="30" width="80" height="60" as="geometry" />
        </mxCell>
        <mxCell id="vJPNDShFkI2undiYQ7cn-75" style="edgeStyle=orthogonalEdgeStyle;rounded=0;orthogonalLoop=1;jettySize=auto;html=1;entryX=0;entryY=0.5;entryDx=0;entryDy=0;" edge="1" parent="vJPNDShFkI2undiYQ7cn-9" source="vJPNDShFkI2undiYQ7cn-55" target="vJPNDShFkI2undiYQ7cn-74">
          <mxGeometry relative="1" as="geometry" />
        </mxCell>
        <mxCell id="vJPNDShFkI2undiYQ7cn-55" value="用户&lt;br&gt;调整配置" style="rounded=0;whiteSpace=wrap;html=1;fontFamily=Helvetica;fontSize=12;fontColor=#000000;align=center;" vertex="1" parent="vJPNDShFkI2undiYQ7cn-9">
          <mxGeometry x="402" y="30" width="80" height="60" as="geometry" />
        </mxCell>
        <mxCell id="vJPNDShFkI2undiYQ7cn-67" style="edgeStyle=orthogonalEdgeStyle;rounded=0;orthogonalLoop=1;jettySize=auto;html=1;entryX=0;entryY=0.5;entryDx=0;entryDy=0;" edge="1" parent="vJPNDShFkI2undiYQ7cn-9" source="vJPNDShFkI2undiYQ7cn-61" target="vJPNDShFkI2undiYQ7cn-55">
          <mxGeometry relative="1" as="geometry" />
        </mxCell>
        <mxCell id="vJPNDShFkI2undiYQ7cn-61" value="显示可用配置" style="rounded=0;whiteSpace=wrap;html=1;fontFamily=Helvetica;fontSize=12;fontColor=#000000;align=center;" vertex="1" parent="vJPNDShFkI2undiYQ7cn-9">
          <mxGeometry x="282" y="30" width="80" height="60" as="geometry" />
        </mxCell>
        <mxCell id="vJPNDShFkI2undiYQ7cn-51" value="显示日志" style="rounded=0;whiteSpace=wrap;html=1;fontFamily=Helvetica;fontSize=12;fontColor=#000000;align=center;" vertex="1" parent="vJPNDShFkI2undiYQ7cn-9">
          <mxGeometry x="642" y="30" width="88" height="60" as="geometry" />
        </mxCell>
        <mxCell id="vJPNDShFkI2undiYQ7cn-74" value="用户&lt;br&gt;点击运行" style="rounded=0;whiteSpace=wrap;html=1;fontFamily=Helvetica;fontSize=12;fontColor=#000000;align=center;" vertex="1" parent="vJPNDShFkI2undiYQ7cn-9">
          <mxGeometry x="522" y="30" width="80" height="60" as="geometry" />
        </mxCell>
        <mxCell id="vJPNDShFkI2undiYQ7cn-22" style="edgeStyle=orthogonalEdgeStyle;rounded=0;orthogonalLoop=1;jettySize=auto;html=1;entryX=0.5;entryY=0;entryDx=0;entryDy=0;" edge="1" parent="dNxyNK7c78bLwvsdeMH5-19" source="dNxyNK7c78bLwvsdeMH5-24" target="vJPNDShFkI2undiYQ7cn-11">
          <mxGeometry relative="1" as="geometry" />
        </mxCell>
        <mxCell id="vJPNDShFkI2undiYQ7cn-64" style="edgeStyle=orthogonalEdgeStyle;rounded=0;orthogonalLoop=1;jettySize=auto;html=1;entryX=0.5;entryY=0;entryDx=0;entryDy=0;exitX=0.5;exitY=1;exitDx=0;exitDy=0;" edge="1" parent="dNxyNK7c78bLwvsdeMH5-19" source="vJPNDShFkI2undiYQ7cn-11" target="vJPNDShFkI2undiYQ7cn-62">
          <mxGeometry relative="1" as="geometry">
            <Array as="points">
              <mxPoint x="240" y="220" />
              <mxPoint x="360" y="220" />
            </Array>
          </mxGeometry>
        </mxCell>
        <mxCell id="vJPNDShFkI2undiYQ7cn-65" style="edgeStyle=orthogonalEdgeStyle;rounded=0;orthogonalLoop=1;jettySize=auto;html=1;entryX=0.5;entryY=0;entryDx=0;entryDy=0;" edge="1" parent="dNxyNK7c78bLwvsdeMH5-19" source="vJPNDShFkI2undiYQ7cn-62" target="vJPNDShFkI2undiYQ7cn-61">
          <mxGeometry relative="1" as="geometry" />
        </mxCell>
        <mxCell id="vJPNDShFkI2undiYQ7cn-56" style="edgeStyle=orthogonalEdgeStyle;rounded=0;orthogonalLoop=1;jettySize=auto;html=1;entryX=0.5;entryY=1;entryDx=0;entryDy=0;" edge="1" parent="dNxyNK7c78bLwvsdeMH5-19" source="vJPNDShFkI2undiYQ7cn-55" target="vJPNDShFkI2undiYQ7cn-19">
          <mxGeometry relative="1" as="geometry" />
        </mxCell>
        <mxCell id="vJPNDShFkI2undiYQ7cn-76" style="edgeStyle=orthogonalEdgeStyle;rounded=0;orthogonalLoop=1;jettySize=auto;html=1;entryX=0.5;entryY=1;entryDx=0;entryDy=0;" edge="1" parent="dNxyNK7c78bLwvsdeMH5-19" source="vJPNDShFkI2undiYQ7cn-74" target="vJPNDShFkI2undiYQ7cn-70">
          <mxGeometry relative="1" as="geometry">
            <mxPoint x="582" y="280" as="targetPoint" />
          </mxGeometry>
        </mxCell>
        <mxCell id="vJPNDShFkI2undiYQ7cn-53" style="edgeStyle=orthogonalEdgeStyle;rounded=0;orthogonalLoop=1;jettySize=auto;html=1;entryX=0.5;entryY=0;entryDx=0;entryDy=0;" edge="1" parent="dNxyNK7c78bLwvsdeMH5-19" source="vJPNDShFkI2undiYQ7cn-17" target="vJPNDShFkI2undiYQ7cn-52">
          <mxGeometry relative="1" as="geometry" />
        </mxCell>
        <mxCell id="vJPNDShFkI2undiYQ7cn-54" style="edgeStyle=orthogonalEdgeStyle;rounded=0;orthogonalLoop=1;jettySize=auto;html=1;entryX=0.5;entryY=0;entryDx=0;entryDy=0;" edge="1" parent="dNxyNK7c78bLwvsdeMH5-19" source="vJPNDShFkI2undiYQ7cn-52" target="vJPNDShFkI2undiYQ7cn-51">
          <mxGeometry relative="1" as="geometry" />
        </mxCell>
      </root>
    </mxGraphModel>
  </diagram>
</mxfile>
